# xmcd
#
# Track frame offsets: 
#        150
#        25492
#        51099
#        70810
#        83493
#        104060
#        124383
#        137741
#        156432
#        176497
#        204894
#        221859
#        245637
#
# Disc length: 3627 seconds
#
# Revision: 0
# Processed by: cddbd v1.5.1PL2 Copyright (c) Steve Scherf et al.
# Submitted via: ExactAudioCopy v0.95b4
#
DISCID=c20e290d
DTITLE=Sinclair intimacy institute - Journeys: Sexplorations for Lover
DTITLE=s
DYEAR=2005
DGENRE=Blues
TTITLE0=Journeys
TTITLE1=Morning Glory
TTITLE2=The Gaze
TTITLE3=Brazilian Siesta
TTITLE4=Mile High Club
TTITLE5=Erotic Wish
TTITLE6=Amorous Intentions
TTITLE7=Deep Seduction
TTITLE8=Elegant Ritual
TTITLE9=Bound in Love
TTITLE10=Bed Games
TTITLE11=Mastermind
TTITLE12=The Better Sex Theme
EXTD=
EXTT0=
EXTT1=
EXTT2=
EXTT3=
EXTT4=
EXTT5=
EXTT6=
EXTT7=
EXTT8=
EXTT9=
EXTT10=
EXTT11=
EXTT12=
PLAYORDER=
